<?xml version="1.0" standalone="no"?>
<!DOCTYPE svg PUBLIC "-//W3C//DTD SVG 20010904//EN"
 "http://www.w3.org/TR/2001/REC-SVG-20010904/DTD/svg10.dtd">
<svg version="1.0" xmlns="http://www.w3.org/2000/svg"
 width="260.000000pt" height="260.000000pt" viewBox="0 0 260.000000 260.000000"
 preserveAspectRatio="xMidYMid meet">
<metadata>
Created by potrace 1.14, written by Peter Selinger 2001-2017
</metadata>
<g transform="translate(0.000000,260.000000) scale(0.100000,-0.100000)"
fill="#000000" stroke="none">
<path d="M1065 2530 c-244 -52 -446 -177 -593 -368 -98 -126 -176 -310 -198
-467 -3 -27 -8 -59 -10 -70 -7 -33 -6 -206 1 -270 43 -398 290 -725 647 -856
73 -27 99 -34 158 -44 169 -30 344 -26 477 9 47 13 54 12 71 -3 33 -29 263
-243 351 -328 l86 -83 145 0 145 0 -40 36 c-22 20 -85 78 -140 129 -55 50
-112 103 -126 116 -15 13 -68 62 -119 109 -51 47 -101 92 -111 101 -16 14 -13
18 59 67 229 153 384 403 427 687 15 95 17 288 4 365 -5 30 -11 70 -14 89 -7
44 -48 164 -79 232 -115 251 -353 455 -616 528 -118 32 -127 33 -285 37 -118
2 -169 -1 -240 -16z m340 -174 c172 -21 345 -108 458 -230 118 -127 194 -293
222 -486 4 -25 7 -97 7 -160 -1 -269 -93 -496 -269 -660 -297 -277 -809 -269
-1101 18 -124 122 -213 308 -239 503 -9 66 -9 226 -1 294 32 252 162 474 348
598 50 33 220 112 220 102 0 -2 15 1 33 6 17 5 52 12 77 15 25 3 46 7 47 8 5
4 143 -1 198 -8z"/>
</g>
</svg>
